solid Mesh
 facet normal -1 0 0
  outer loop
   vertex 0.4975 0.4975 0
   vertex 0.4975 -0.4975 0
   vertex 0.4975 0.4975 1
  endloop
 endfacet
 facet normal -1 -0 0
  outer loop
   vertex 0.4975 0.4975 1
   vertex 0.4975 -0.4975 0
   vertex 0.4975 -0.4975 1
  endloop
 endfacet
 facet normal 0 -1 0
  outer loop
   vertex -0.4975 0.4975 1
   vertex -0.48 0.4975 0.82
   vertex -0.48 0.4975 1
  endloop
 endfacet
 facet normal 0 -1 0
  outer loop
   vertex 0.48 0.4975 1
   vertex 0.48 0.4975 0.82
   vertex 0.4975 0.4975 1
  endloop
 endfacet
 facet normal 0 -1 0
  outer loop
   vertex -0.48 0.4975 0.82
   vertex 0.4975 0.4975 0
   vertex 0.48 0.4975 0.82
  endloop
 endfacet
 facet normal 0 -1 0
  outer loop
   vertex -0.4975 0.4975 0
   vertex 0.4975 0.4975 0
   vertex -0.48 0.4975 0.82
  endloop
 endfacet
 facet normal 0 -1 0
  outer loop
   vertex -0.4975 0.4975 1
   vertex -0.4975 0.4975 0
   vertex -0.48 0.4975 0.82
  endloop
 endfacet
 facet normal 0 -1 0
  outer loop
   vertex 0.4975 0.4975 0
   vertex 0.4975 0.4975 1
   vertex 0.48 0.4975 0.82
  endloop
 endfacet
 facet normal 0 1 0
  outer loop
   vertex 0.4975 -0.4975 0
   vertex 0.48 -0.4975 -0
   vertex 0.48 -0.4975 0.18
  endloop
 endfacet
 facet normal 0 1 0
  outer loop
   vertex 0.4975 -0.4975 1
   vertex -0.48 -0.4975 0.18
   vertex -0.4975 -0.4975 1
  endloop
 endfacet
 facet normal 0 1 -0
  outer loop
   vertex 0.48 -0.4975 0.18
   vertex -0.48 -0.4975 0.18
   vertex 0.4975 -0.4975 1
  endloop
 endfacet
 facet normal 0 1 -0
  outer loop
   vertex -0.48 -0.4975 -0
   vertex -0.4975 -0.4975 0
   vertex -0.48 -0.4975 0.18
  endloop
 endfacet
 facet normal 0 1 0
  outer loop
   vertex 0.4975 -0.4975 1
   vertex 0.4975 -0.4975 0
   vertex 0.48 -0.4975 0.18
  endloop
 endfacet
 facet normal 0 1 0
  outer loop
   vertex -0.4975 -0.4975 0
   vertex -0.4975 -0.4975 1
   vertex -0.48 -0.4975 0.18
  endloop
 endfacet
 facet normal 0 -0 -1
  outer loop
   vertex -0.4975 -0.4975 0
   vertex -0.48 -0.5075 0
   vertex -0.5075 -0.5075 0
  endloop
 endfacet
 facet normal 0 -0 -1
  outer loop
   vertex -0.4975 -0.4975 0
   vertex -0.48 -0.4975 -0
   vertex -0.48 -0.5075 0
  endloop
 endfacet
 facet normal 0 0 -1
  outer loop
   vertex -0.5075 0.5075 0
   vertex -0.4975 0.4975 0
   vertex -0.5075 -0.5075 0
  endloop
 endfacet
 facet normal 0 0 -1
  outer loop
   vertex -0.5075 -0.5075 0
   vertex -0.4975 0.4975 0
   vertex -0.4975 -0.4975 0
  endloop
 endfacet
 facet normal 0 0 -1
  outer loop
   vertex 0.48 -0.4975 -0
   vertex 0.4975 -0.4975 0
   vertex 0.48 -0.5075 0
  endloop
 endfacet
 facet normal 0 0 -1
  outer loop
   vertex 0.48 -0.5075 0
   vertex 0.4975 -0.4975 0
   vertex 0.5075 -0.5075 0
  endloop
 endfacet
 facet normal 0 0 -1
  outer loop
   vertex 0.4975 -0.4975 0
   vertex 0.4975 0.4975 0
   vertex 0.5075 -0.5075 0
  endloop
 endfacet
 facet normal 0 0 -1
  outer loop
   vertex 0.4975 0.4975 0
   vertex 0.5075 0.5075 0
   vertex 0.5075 -0.5075 0
  endloop
 endfacet
 facet normal 0 0 -1
  outer loop
   vertex -0.5075 0.5075 0
   vertex 0.5075 0.5075 0
   vertex -0.4975 0.4975 0
  endloop
 endfacet
 facet normal 0 0 -1
  outer loop
   vertex -0.4975 0.4975 0
   vertex 0.5075 0.5075 0
   vertex 0.4975 0.4975 0
  endloop
 endfacet
 facet normal 0 0 -1
  outer loop
   vertex -0.4975 0.4975 1
   vertex -0.48 0.4975 1
   vertex -0.4975 -0.4975 1
  endloop
 endfacet
 facet normal 0 0 -1
  outer loop
   vertex -0.4975 -0.4975 1
   vertex 0.48 0.4975 1
   vertex 0.4975 -0.4975 1
  endloop
 endfacet
 facet normal 0 -0 -1
  outer loop
   vertex -0.48 0.4975 1
   vertex 0.48 0.4975 1
   vertex -0.4975 -0.4975 1
  endloop
 endfacet
 facet normal 0 0 -1
  outer loop
   vertex 0.48 0.4975 1
   vertex 0.4975 0.4975 1
   vertex 0.4975 -0.4975 1
  endloop
 endfacet
 facet normal -1 0 -0
  outer loop
   vertex 0.48 0.5075 1
   vertex 0.48 0.5075 0.82
   vertex 0.48 0.4975 0.82
  endloop
 endfacet
 facet normal -1 -0 0
  outer loop
   vertex 0.48 0.5075 1
   vertex 0.48 0.4975 0.82
   vertex 0.48 0.4975 1
  endloop
 endfacet
 facet normal 0 0 1
  outer loop
   vertex 0.48 0.5075 0.82
   vertex -0.48 0.5075 0.82
   vertex -0.48 0.4975 0.82
  endloop
 endfacet
 facet normal 0 0 1
  outer loop
   vertex 0.48 0.5075 0.82
   vertex -0.48 0.4975 0.82
   vertex 0.48 0.4975 0.82
  endloop
 endfacet
 facet normal 1 0 -0
  outer loop
   vertex -0.48 0.5075 0.82
   vertex -0.48 0.5075 1
   vertex -0.48 0.4975 1
  endloop
 endfacet
 facet normal 1 0 0
  outer loop
   vertex -0.48 0.5075 0.82
   vertex -0.48 0.4975 1
   vertex -0.48 0.4975 0.82
  endloop
 endfacet
 facet normal 1 0 0
  outer loop
   vertex -0.4975 -0.4975 0
   vertex -0.4975 0.4975 0
   vertex -0.4975 -0.4975 1
  endloop
 endfacet
 facet normal 1 -0 0
  outer loop
   vertex -0.4975 -0.4975 1
   vertex -0.4975 0.4975 0
   vertex -0.4975 0.4975 1
  endloop
 endfacet
 facet normal -1 0 0
  outer loop
   vertex 0.48 -0.5075 0
   vertex 0.48 -0.5075 0.18
   vertex 0.48 -0.4975 -0
  endloop
 endfacet
 facet normal -1 0 0
  outer loop
   vertex 0.48 -0.4975 -0
   vertex 0.48 -0.5075 0.18
   vertex 0.48 -0.4975 0.18
  endloop
 endfacet
 facet normal 0 0 -1
  outer loop
   vertex 0.48 -0.5075 0.18
   vertex -0.48 -0.5075 0.18
   vertex 0.48 -0.4975 0.18
  endloop
 endfacet
 facet normal -0 0 -1
  outer loop
   vertex 0.48 -0.4975 0.18
   vertex -0.48 -0.5075 0.18
   vertex -0.48 -0.4975 0.18
  endloop
 endfacet
 facet normal 1 -0 0
  outer loop
   vertex -0.48 -0.5075 0.18
   vertex -0.48 -0.5075 0
   vertex -0.48 -0.4975 0.18
  endloop
 endfacet
 facet normal 1 0 0
  outer loop
   vertex -0.48 -0.4975 0.18
   vertex -0.48 -0.5075 0
   vertex -0.48 -0.4975 -0
  endloop
 endfacet
 facet normal 0 -1 0
  outer loop
   vertex 0.48 -0.5075 0
   vertex 0.5075 -0.5075 0
   vertex 0.48 -0.5075 0.18
  endloop
 endfacet
 facet normal 0 -1 0
  outer loop
   vertex -0.48 -0.5075 0.18
   vertex 0.5075 -0.5075 1.01
   vertex -0.5075 -0.5075 1.01
  endloop
 endfacet
 facet normal 0 -1 0
  outer loop
   vertex -0.48 -0.5075 0.18
   vertex 0.48 -0.5075 0.18
   vertex 0.5075 -0.5075 1.01
  endloop
 endfacet
 facet normal 0 -1 0
  outer loop
   vertex -0.5075 -0.5075 0
   vertex -0.48 -0.5075 0
   vertex -0.48 -0.5075 0.18
  endloop
 endfacet
 facet normal 0 -1 0
  outer loop
   vertex -0.5075 -0.5075 1.01
   vertex -0.5075 -0.5075 0
   vertex -0.48 -0.5075 0.18
  endloop
 endfacet
 facet normal 0 -1 0
  outer loop
   vertex 0.5075 -0.5075 0
   vertex 0.5075 -0.5075 1.01
   vertex 0.48 -0.5075 0.18
  endloop
 endfacet
 facet normal -1 -0 0
  outer loop
   vertex -0.5075 0.5075 1.01
   vertex -0.5075 -0.5075 0
   vertex -0.5075 -0.5075 1.01
  endloop
 endfacet
 facet normal -1 0 0
  outer loop
   vertex -0.5075 0.5075 0
   vertex -0.5075 -0.5075 0
   vertex -0.5075 0.5075 1.01
  endloop
 endfacet
 facet normal 0 1 -0
  outer loop
   vertex -0.48 0.5075 0.82
   vertex -0.5075 0.5075 1.01
   vertex -0.48 0.5075 1
  endloop
 endfacet
 facet normal 0 1 0
  outer loop
   vertex 0.48 0.5075 1
   vertex -0.48 0.5075 1
   vertex -0.5075 0.5075 1.01
  endloop
 endfacet
 facet normal 0 1 0
  outer loop
   vertex 0.5075 0.5075 1.01
   vertex 0.48 0.5075 1
   vertex -0.5075 0.5075 1.01
  endloop
 endfacet
 facet normal 0 1 0
  outer loop
   vertex 0.48 0.5075 0.82
   vertex 0.48 0.5075 1
   vertex 0.5075 0.5075 1.01
  endloop
 endfacet
 facet normal 0 1 0
  outer loop
   vertex 0.5075 0.5075 0
   vertex -0.48 0.5075 0.82
   vertex 0.48 0.5075 0.82
  endloop
 endfacet
 facet normal 0 1 0
  outer loop
   vertex 0.5075 0.5075 0
   vertex -0.5075 0.5075 0
   vertex -0.48 0.5075 0.82
  endloop
 endfacet
 facet normal 0 1 0
  outer loop
   vertex 0.5075 0.5075 1.01
   vertex 0.5075 0.5075 0
   vertex 0.48 0.5075 0.82
  endloop
 endfacet
 facet normal 0 1 0
  outer loop
   vertex -0.5075 0.5075 0
   vertex -0.5075 0.5075 1.01
   vertex -0.48 0.5075 0.82
  endloop
 endfacet
 facet normal 1 -0 0
  outer loop
   vertex 0.5075 -0.5075 1.01
   vertex 0.5075 0.5075 0
   vertex 0.5075 0.5075 1.01
  endloop
 endfacet
 facet normal 1 0 0
  outer loop
   vertex 0.5075 -0.5075 0
   vertex 0.5075 0.5075 0
   vertex 0.5075 -0.5075 1.01
  endloop
 endfacet
 facet normal 0 0 -1
  outer loop
   vertex -0.48 0.5075 1
   vertex 0.48 0.5075 1
   vertex 0.48 0.4975 1
  endloop
 endfacet
 facet normal 0 0 -1
  outer loop
   vertex -0.48 0.5075 1
   vertex 0.48 0.4975 1
   vertex -0.48 0.4975 1
  endloop
 endfacet
 facet normal 0 0 1
  outer loop
   vertex 0.5075 0.5075 1.01
   vertex -0.5075 0.5075 1.01
   vertex -0.5075 -0.5075 1.01
  endloop
 endfacet
 facet normal 0 0 1
  outer loop
   vertex 0.5075 0.5075 1.01
   vertex -0.5075 -0.5075 1.01
   vertex 0.5075 -0.5075 1.01
  endloop
 endfacet
endsolid Mesh
